# xmcd
#
# Track frame offsets:
#	150
#	14142
#	27884
#	37307
#	46707
#	59543
#	72704
#	86305
#	95615
#	110080
#	123030
#	131001
#	144024
#	153770
#	168041
#	179206
#	188879
#	198996
#	211245
#	234939
#
# Disc length: 3174 seconds
#
# Revision: 1
# Processed by: cddbd v1.5.2PL0 Copyright (c) Steve Scherf et al.
# Submitted via: audiograbber 1.83.01
#
DISCID=170c6414
DTITLE=Mitchell Sam - Bottleneck Slide
DYEAR=1976
DGENRE=Blues
TTITLE0=Ambidextrous March
TTITLE1=Roll and Tumble
TTITLE2=Laguna Luna
TTITLE3=Paddlin' Madeline
TTITLE4=Hambone
TTITLE5=Earl Blues
TTITLE6=Pile Driver
TTITLE7=Dark was the Night Cold was the Ground
TTITLE8=Crossroads Blues
TTITLE9=Livingston Blues
TTITLE10=Let Me Play it First before I Aloha
TTITLE11=Come On in My Kitchen
TTITLE12=Tribute to Elmore
TTITLE13=Sunshine in Houston
TTITLE14=Two Step Swing Thing
TTITLE15=Nobody's Fault But Mine
TTITLE16=Jubilee Jamboree
TTITLE17=Motherless Child
TTITLE18=Rainy Day Blues
TTITLE19=Daten CD mit 6MB Tabs und PDFs 
EXTD=Neuauflage 2010 Acoustic Music
EXTT0=
EXTT1=
EXTT2=
EXTT3=
EXTT4=
EXTT5=
EXTT6=
EXTT7=
EXTT8=
EXTT9=
EXTT10=
EXTT11=
EXTT12=
EXTT13=
EXTT14=
EXTT15=Bonus Track
EXTT16=Bonus Track
EXTT17=
EXTT18=Bonus Track
EXTT19=Neuauflage 2010 Acoustic Music , Osnabrueck
PLAYORDER=
